<?xml version="1.0" encoding="UTF-8" standalone="no"?>
<svg
   width="41.042px"
   height="41.042px"
   viewBox="0 0 41.042 41.042"
   version="1.1"
   id="svg1"
   xmlns="http://www.w3.org/2000/svg"
   xmlns:svg="http://www.w3.org/2000/svg">
  <path
     d="M 31.77,19.432 V 11.726 C 31.77,7.782 28.57,4.583 24.627,4.583 h -8.212 c -3.944,0 -7.143,3.2 -7.143,7.143 v 7.706 c -2.358,0.865 -4.048,3.11 -4.048,5.758 v 4.048 c 0,3.394 2.749,6.143 6.143,6.143 h 18.308 c 3.394,0 6.143,-2.749 6.143,-6.143 V 25.19 c 0,-2.648 -1.69,-4.893 -4.048,-5.758 z m -20.433,-7.706 c 0,-2.208 1.794,-4.002 4.002,-4.002 h 8.212 c 2.208,0 4.002,1.794 4.002,4.002 v 7.143 H 11.337 Z m 22.338,17.512 c 0,1.657 -1.345,3.002 -3.002,3.002 H 11.337 c -1.657,0 -3.002,-1.345 -3.002,-3.002 V 25.19 c 0,-1.657 1.345,-3.002 3.002,-3.002 h 18.308 c 1.657,0 3.002,1.345 3.002,3.002 z"
     id="path1"
     style="fill:#ffffff;stroke-width:1.14286" />
  <circle
     cx="16.5"
     cy="26.5"
     r="2.5"
     id="circle1"
     style="fill:#ffffff" />
  <circle
     cx="24.5"
     cy="26.5"
     r="2.5"
     id="circle2"
     style="fill:#ffffff" />
</svg>
