<?xml version="1.0" encoding="UTF-8" standalone="no"?>
<svg
   width="41.042px"
   height="41.042px"
   viewBox="0 0 41.042 41.042"
   version="1.1"
   id="svg1"
   xmlns="http://www.w3.org/2000/svg"
   xmlns:svg="http://www.w3.org/2000/svg">
  <path
     d="m 20.521,20.521 c 4.428,0 8.01,-3.582 8.01,-8.01 0,-4.428 -3.582,-8.01 -8.01,-8.01 -4.428,0 -8.01,3.582 -8.01,8.01 0,4.428 3.582,8.01 8.01,8.01 z m 0,-12.821 c 2.65,0 4.811,2.161 4.811,4.811 0,2.65 -2.161,4.811 -4.811,4.811 -2.65,0 -4.811,-2.161 -4.811,-4.811 0,-2.65 2.161,-4.811 4.811,-4.811 z M 20.521,24.12 c -5.339,0 -16.021,2.68 -16.021,8.01 v 4.811 c 0,0.885 0.722,1.603 1.603,1.603 h 28.836 c 0.885,0 1.603,-0.722 1.603,-1.603 V 32.13 c 0,-5.33 -10.682,-8.01 -16.021,-8.01 z m 12.821,11.22 H 7.7 v -3.21 c 0.233,-1.603 6.414,-4.811 12.821,-4.811 6.407,0 12.588,3.208 12.821,4.811 z"
     id="path1"
     style="fill:#ffffff;stroke-width:0.801" />
</svg>
